<?xml version="1.0" standalone="no"?>
<svg viewBox="0 0 200 200" xmlns="http://www.w3.org/2000/svg">
  <path fill="#F1F4F7" d="M42.9,-71.6C55.3,-67.2,64.8,-55,73.5,-41.8C82.3,-28.6,90.3,-14.3,89.3,-0.6C88.2,13.1,78.1,26.1,68.3,37.6C58.6,49.1,49.2,59.1,37.9,63C26.6,67,13.3,65,-1,66.7C-15.3,68.5,-30.7,74.1,-44.3,71.5C-57.9,68.8,-69.8,58,-77.6,44.7C-85.4,31.4,-89,15.7,-88.8,0.1C-88.5,-15.4,-84.3,-30.8,-74.9,-41.3C-65.4,-51.7,-50.8,-57.1,-37.4,-61C-24.1,-64.8,-12,-67.2,1.6,-70C15.3,-72.8,30.5,-76.1,42.9,-71.6Z" transform="translate(100 100)" />
</svg>
